{
  "accessors": [
    {
      "bufferView": 2,
      "componentType": 5126,
      "count": 65534,
      "max": [
        10.410257339477539,
        12.714805603027344,
        4.193472862243652
      ],
      "min": [
        3.5064280033111572,
        3.59094500541687,
        0.0006070137023925781
      ],
      "type": "VEC3"
    },
    {
      "bufferView": 2,
      "byteOffset": 786408,
      "componentType": 5126,
      "count": 65534,
      "max": [
        0.9997233748435974,
        0.9999542236328125,
        0.9999957084655762
      ],
      "min": [
        -0.9999613165855408,
        -0.9999977946281433,
        -0.9999620318412781
      ],
      "type": "VEC3"
    },
    {
      "bufferView": 1,
      "componentType": 5126,
      "count": 65534,
      "max": [
        0.9988229870796204,
        1.0012370347976685
      ],
      "min": [
        -4.8999998398358e-05,
        0.03836100175976753
      ],
      "type": "VEC2"
    },
    {
      "bufferView": 0,
      "componentType": 5125,
      "count": 265920,
      "type": "SCALAR"
    },
    {
      "bufferView": 2,
      "byteOffset": 1572816,
      "componentType": 5126,
      "count": 65532,
      "max": [
        8.528633117675781,
        12.609479904174805,
        7.401294708251953
      ],
      "min": [
        2.343977928161621,
        0.026828765869140625,
        0.23235511779785156
      ],
      "type": "VEC3"
    },
    {
      "bufferView": 2,
      "byteOffset": 2359200,
      "componentType": 5126,
      "count": 65532,
      "max": [
        0.999982476234436,
        0.9999182224273682,
        0.9999842643737793
      ],
      "min": [
        -0.9999769330024719,
        -0.9999935030937195,
        -0.9999764561653137
      ],
      "type": "VEC3"
    },
    {
      "bufferView": 1,
      "byteOffset": 524272,
      "componentType": 5126,
      "count": 65532,
      "max": [
        0.9993060231208801,
        1.0012370347976685
      ],
      "min": [
        0.0017900000093504786,
        0.00380500010214746
      ],
      "type": "VEC2"
    },
    {
      "bufferView": 0,
      "byteOffset": 1063680,
      "componentType": 5125,
      "count": 270051,
      "type": "SCALAR"
    },
    {
      "bufferView": 2,
      "byteOffset": 3145584,
      "componentType": 5126,
      "count": 65532,
      "max": [
        9.628734588623047,
        12.716629981994629,
        7.591020107269287
      ],
      "min": [
        0.29071903228759766,
        0.6646490097045898,
        0.12677597999572754
      ],
      "type": "VEC3"
    },
    {
      "bufferView": 2,
      "byteOffset": 3931968,
      "componentType": 5126,
      "count": 65532,
      "max": [
        0.9999993443489075,
        0.9997663497924805,
        0.9980238676071167
      ],
      "min": [
        -0.9999737739562988,
        -0.9999533891677856,
        -0.9999948143959045
      ],
      "type": "VEC3"
    },
    {
      "bufferView": 1,
      "byteOffset": 1048528,
      "componentType": 5126,
      "count": 65532,
      "max": [
        0.9993090033531189,
        0.9980959892272949
      ],
      "min": [
        0.006490999832749367,
        0.006932999938726425
      ],
      "type": "VEC2"
    },
    {
      "bufferView": 0,
      "byteOffset": 2143884,
      "componentType": 5125,
      "count": 308916,
      "type": "SCALAR"
    },
    {
      "bufferView": 2,
      "byteOffset": 4718352,
      "componentType": 5126,
      "count": 65532,
      "max": [
        9.111698150634766,
        12.19540786743164,
        7.831963062286377
      ],
      "min": [
        0.7916421890258789,
        0.5429439544677734,
        0.28991198539733887
      ],
      "type": "VEC3"
    },
    {
      "bufferView": 2,
      "byteOffset": 5504736,
      "componentType": 5126,
      "count": 65532,
      "max": [
        0.9996531009674072,
        0.9993882775306702,
        0.9973733425140381
      ],
      "min": [
        -0.9999755024909973,
        -0.9999716281890869,
        -0.9999768733978271
      ],
      "type": "VEC3"
    },
    {
      "bufferView": 1,
      "byteOffset": 1572784,
      "componentType": 5126,
      "count": 65532,
      "max": [
        0.9991859793663025,
        0.9981769919395447
      ],
      "min": [
        0.0040870001539587975,
        0.003667999990284443
      ],
      "type": "VEC2"
    },
    {
      "bufferView": 0,
      "byteOffset": 3379548,
      "componentType": 5125,
      "count": 307617,
      "type": "SCALAR"
    },
    {
      "bufferView": 2,
      "byteOffset": 6291120,
      "componentType": 5126,
      "count": 65532,
      "max": [
        9.610442161560059,
        12.591422080993652,
        7.887423992156982
      ],
      "min": [
        0.0,
        0.028354167938232422,
        0.2252960205078125
      ],
      "type": "VEC3"
    },
    {
      "bufferView": 2,
      "byteOffset": 7077504,
      "componentType": 5126,
      "count": 65532,
      "max": [
        0.9999094009399414,
        0.9996148943901062,
        0.9997089505195618
      ],
      "min": [
        -0.9999430179595947,
        -0.9999922513961792,
        -0.9999845027923584
      ],
      "type": "VEC3"
    },
    {
      "bufferView": 1,
      "byteOffset": 2097040,
      "componentType": 5126,
      "count": 65532,
      "max": [
        0.999284029006958,
        0.9991850256919861
      ],
      "min": [
        0.003558000084012747,
        0.003942000214010477
      ],
      "type": "VEC2"
    },
    {
      "bufferView": 0,
      "byteOffset": 4610016,
      "componentType": 5125,
      "count": 277263,
      "type": "SCALAR"
    },
    {
      "bufferView": 2,
      "byteOffset": 7863888,
      "componentType": 5126,
      "count": 65532,
      "max": [
        9.6314058303833,
        12.711211204528809,
        7.742697715759277
      ],
      "min": [
        0.0021309852600097656,
        0.0004830360412597656,
        0.21256494522094727
      ],
      "type": "VEC3"
    },
    {
      "bufferView": 2,
      "byteOffset": 8650272,
      "componentType": 5126,
      "count": 65532,
      "max": [
        0.9999993443489075,
        0.9992260932922363,
        0.9993393421173096
      ],
      "min": [
        -0.9999127984046936,
        -0.9999173879623413,
        -0.9999983906745911
      ],
      "type": "VEC3"
    },
    {
      "bufferView": 1,
      "byteOffset": 2621296,
      "componentType": 5126,
      "count": 65532,
      "max": [
        0.9992089867591858,
        0.9994109869003296
      ],
      "min": [
        0.00039400000241585076,
        0.005429999902844429
      ],
      "type": "VEC2"
    },
    {
      "bufferView": 0,
      "byteOffset": 5719068,
      "componentType": 5125,
      "count": 269910,
      "type": "SCALAR"
    },
    {
      "bufferView": 2,
      "byteOffset": 9436656,
      "componentType": 5126,
      "count": 65532,
      "max": [
        10.331318855285645,
        12.588052749633789,
        7.902864933013916
      ],
      "min": [
        0.0225830078125,
        0.0028638839721679688,
        0.28986597061157227
      ],
      "type": "VEC3"
    },
    {
      "bufferView": 2,
      "byteOffset": 10223040,
      "componentType": 5126,
      "count": 65532,
      "max": [
        0.9995989203453064,
        0.9995726346969604,
        0.9994910955429077
      ],
      "min": [
        -0.9999275803565979,
        -0.9999973177909851,
        -0.9999976754188538
      ],
      "type": "VEC3"
    },
    {
      "bufferView": 1,
      "byteOffset": 3145552,
      "componentType": 5126,
      "count": 65532,
      "max": [
        0.9988059997558594,
        0.9992700219154358
      ],
      "min": [
        0.0036100000143051147,
        0.0038640000857412815
      ],
      "type": "VEC2"
    },
    {
      "bufferView": 0,
      "byteOffset": 6798708,
      "componentType": 5125,
      "count": 273420,
      "type": "SCALAR"
    },
    {
      "bufferView": 2,
      "byteOffset": 11009424,
      "componentType": 5126,
      "count": 65532,
      "max": [
        10.535183906555176,
        12.420985221862793,
        7.928348064422607
      ],
      "min": [
        0.2464771270751953,
        0.0,
        0.005589962005615234
      ],
      "type": "VEC3"
    },
    {
      "bufferView": 2,
      "byteOffset": 11795808,
      "componentType": 5126,
      "count": 65532,
      "max": [
        0.9999563097953796,
        0.9999471306800842,
        0.9998641014099121
      ],
      "min": [
        -0.999961793422699,
        -0.9999510645866394,
        -0.999971330165863
      ],
      "type": "VEC3"
    },
    {
      "bufferView": 1,
      "byteOffset": 3669808,
      "componentType": 5126,
      "count": 65532,
      "max": [
        0.9993420243263245,
        1.0013279914855957
      ],
      "min": [
        0.00317499996162951,
        0.003949999809265137
      ],
      "type": "VEC2"
    },
    {
      "bufferView": 0,
      "byteOffset": 7892388,
      "componentType": 5125,
      "count": 274038,
      "type": "SCALAR"
    },
    {
      "bufferView": 2,
      "byteOffset": 12582192,
      "componentType": 5126,
      "count": 65532,
      "max": [
        10.52991008758545,
        12.618537902832031,
        7.902039051055908
      ],
      "min": [
        0.19813919067382813,
        0.0036029815673828125,
        0.12850213050842285
      ],
      "type": "VEC3"
    },
    {
      "bufferView": 2,
      "byteOffset": 13368576,
      "componentType": 5126,
      "count": 65532,
      "max": [
        0.9999232888221741,
        0.9991315007209778,
        0.9999387860298157
      ],
      "min": [
        -0.9998732805252075,
        -0.9999457001686096,
        -0.9999899864196777
      ],
      "type": "VEC3"
    },
    {
      "bufferView": 1,
      "byteOffset": 4194064,
      "componentType": 5126,
      "count": 65532,
      "max": [
        1.000383973121643,
        1.0015039443969727
      ],
      "min": [
        4.3000000005122274e-05,
        0.004013999830931425
      ],
      "type": "VEC2"
    },
    {
      "bufferView": 0,
      "byteOffset": 8988540,
      "componentType": 5125,
      "count": 206388,
      "type": "SCALAR"
    },
    {
      "bufferView": 2,
      "byteOffset": 14154960,
      "componentType": 5126,
      "count": 65532,
      "max": [
        8.657915115356445,
        12.692983627319336,
        7.418631076812744
      ],
      "min": [
        0.09695672988891602,
        0.05334615707397461,
        0.003802061080932617
      ],
      "type": "VEC3"
    },
    {
      "bufferView": 2,
      "byteOffset": 14941344,
      "componentType": 5126,
      "count": 65532,
      "max": [
        0.9999920725822449,
        0.9999551177024841,
        0.9997392296791077
      ],
      "min": [
        -0.9999199509620667,
        -0.9999457001686096,
        -0.9999966621398926
      ],
      "type": "VEC3"
    },
    {
      "bufferView": 1,
      "byteOffset": 4718320,
      "componentType": 5126,
      "count": 65532,
      "max": [
        0.9990860223770142,
        0.9999309778213501
      ],
      "min": [
        0.0045900000259280205,
        0.008101999759674072
      ],
      "type": "VEC2"
    },
    {
      "bufferView": 0,
      "byteOffset": 9814092,
      "componentType": 5125,
      "count": 260214,
      "type": "SCALAR"
    },
    {
      "bufferView": 2,
      "byteOffset": 15727728,
      "componentType": 5126,
      "count": 65532,
      "max": [
        8.566353797912598,
        12.054183006286621,
        7.068205833435059
      ],
      "min": [
        2.064842939376831,
        1.0151629447937012,
        0.0
      ],
      "type": "VEC3"
    },
    {
      "bufferView": 2,
      "byteOffset": 16514112,
      "componentType": 5126,
      "count": 65532,
      "max": [
        0.999940812587738,
        0.9988294839859009,
        0.9999996423721313
      ],
      "min": [
        -0.9999199509620667,
        -0.9999955296516418,
        -0.9999966621398926
      ],
      "type": "VEC3"
    },
    {
      "bufferView": 1,
      "byteOffset": 5242576,
      "componentType": 5126,
      "count": 65532,
      "max": [
        0.9990940093994141,
        0.9999309778213501
      ],
      "min": [
        3.7999998312443495e-05,
        0.013536999933421612
      ],
      "type": "VEC2"
    },
    {
      "bufferView": 0,
      "byteOffset": 10854948,
      "componentType": 5125,
      "count": 267654,
      "type": "SCALAR"
    },
    {
      "bufferView": 2,
      "byteOffset": 17300496,
      "componentType": 5126,
      "count": 65532,
      "max": [
        7.690077781677246,
        8.903749465942383,
        6.664170265197754
      ],
      "min": [
        2.717885971069336,
        1.1716909408569336,
        1.707111120223999
      ],
      "type": "VEC3"
    },
    {
      "bufferView": 2,
      "byteOffset": 18086880,
      "componentType": 5126,
      "count": 65532,
      "max": [
        0.9999750256538391,
        0.9999411106109619,
        0.999805212020874
      ],
      "min": [
        -0.9999827742576599,
        -0.9999708533287048,
        -0.9999983906745911
      ],
      "type": "VEC3"
    },
    {
      "bufferView": 1,
      "byteOffset": 5766832,
      "componentType": 5126,
      "count": 65532,
      "max": [
        0.9992539882659912,
        0.999504029750824
      ],
      "min": [
        0.00029799999902024865,
        0.02896600030362606
      ],
      "type": "VEC2"
    },
    {
      "bufferView": 0,
      "byteOffset": 11925564,
      "componentType": 5125,
      "count": 281523,
      "type": "SCALAR"
    },
    {
      "bufferView": 2,
      "byteOffset": 18873264,
      "componentType": 5126,
      "count": 64648,
      "max": [
        7.509129047393799,
        8.494007110595703,
        5.008285999298096
      ],
      "min": [
        2.983717918395996,
        3.4032750129699707,
        1.707111120223999
      ],
      "type": "VEC3"
    },
    {
      "bufferView": 2,
      "byteOffset": 19649040,
      "componentType": 5126,
      "count": 64648,
      "max": [
        0.9999750256538391,
        0.9999411106109619,
        0.999502956867218
      ],
      "min": [
        -0.9999827742576599,
        -0.9999938607215881,
        -0.9999927282333374
      ],
      "type": "VEC3"
    },
    {
      "bufferView": 1,
      "byteOffset": 6291088,
      "componentType": 5126,
      "count": 64648,
      "max": [
        0.9992790222167969,
        1.0001980066299438
      ],
      "min": [
        3.999999989900971e-06,
        0.0003969999961555004
      ],
      "type": "VEC2"
    },
    {
      "bufferView": 0,
      "byteOffset": 13051656,
      "componentType": 5125,
      "count": 232464,
      "type": "SCALAR"
    }
  ],
  "asset": {
    "extras": {
      "author": "Ben M. Ritt (https://sketchfab.com/BenMRitt)",
      "license": "CC-BY-4.0 (http://creativecommons.org/licenses/by/4.0/)",
      "source": "https://sketchfab.com/3d-models/coral-reef-outcrop-8bc72c9e4575470ea30d1313e48b730c",
      "title": "Coral Reef Outcrop"
    },
    "generator": "Sketchfab-12.68.0",
    "version": "2.0"
  },
  "bufferViews": [
    {
      "buffer": 0,
      "byteLength": 13981512,
      "name": "floatBufferViews",
      "target": 34963
    },
    {
      "buffer": 0,
      "byteLength": 6808272,
      "byteOffset": 13981512,
      "byteStride": 8,
      "name": "floatBufferViews",
      "target": 34962
    },
    {
      "buffer": 0,
      "byteLength": 20424816,
      "byteOffset": 20789784,
      "byteStride": 12,
      "name": "floatBufferViews",
      "target": 34962
    }
  ],
  "buffers": [
    {
      "byteLength": 41214600,
      "uri": "scene.bin"
    }
  ],
  "images": [
    {
      "uri": "textures/material_0_baseColor.jpeg"
    }
  ],
  "materials": [
    {
      "doubleSided": true,
      "name": "material_0",
      "pbrMetallicRoughness": {
        "baseColorTexture": {
          "index": 0
        },
        "metallicFactor": 0.0,
        "roughnessFactor": 0.6
      }
    }
  ],
  "meshes": [
    {
      "name": "Object_0",
      "primitives": [
        {
          "attributes": {
            "NORMAL": 1,
            "POSITION": 0,
            "TEXCOORD_0": 2
          },
          "indices": 3,
          "material": 0,
          "mode": 4
        }
      ]
    },
    {
      "name": "Object_1",
      "primitives": [
        {
          "attributes": {
            "NORMAL": 5,
            "POSITION": 4,
            "TEXCOORD_0": 6
          },
          "indices": 7,
          "material": 0,
          "mode": 4
        }
      ]
    },
    {
      "name": "Object_2",
      "primitives": [
        {
          "attributes": {
            "NORMAL": 9,
            "POSITION": 8,
            "TEXCOORD_0": 10
          },
          "indices": 11,
          "material": 0,
          "mode": 4
        }
      ]
    },
    {
      "name": "Object_3",
      "primitives": [
        {
          "attributes": {
            "NORMAL": 13,
            "POSITION": 12,
            "TEXCOORD_0": 14
          },
          "indices": 15,
          "material": 0,
          "mode": 4
        }
      ]
    },
    {
      "name": "Object_4",
      "primitives": [
        {
          "attributes": {
            "NORMAL": 17,
            "POSITION": 16,
            "TEXCOORD_0": 18
          },
          "indices": 19,
          "material": 0,
          "mode": 4
        }
      ]
    },
    {
      "name": "Object_5",
      "primitives": [
        {
          "attributes": {
            "NORMAL": 21,
            "POSITION": 20,
            "TEXCOORD_0": 22
          },
          "indices": 23,
          "material": 0,
          "mode": 4
        }
      ]
    },
    {
      "name": "Object_6",
      "primitives": [
        {
          "attributes": {
            "NORMAL": 25,
            "POSITION": 24,
            "TEXCOORD_0": 26
          },
          "indices": 27,
          "material": 0,
          "mode": 4
        }
      ]
    },
    {
      "name": "Object_7",
      "primitives": [
        {
          "attributes": {
            "NORMAL": 29,
            "POSITION": 28,
            "TEXCOORD_0": 30
          },
          "indices": 31,
          "material": 0,
          "mode": 4
        }
      ]
    },
    {
      "name": "Object_8",
      "primitives": [
        {
          "attributes": {
            "NORMAL": 33,
            "POSITION": 32,
            "TEXCOORD_0": 34
          },
          "indices": 35,
          "material": 0,
          "mode": 4
        }
      ]
    },
    {
      "name": "Object_9",
      "primitives": [
        {
          "attributes": {
            "NORMAL": 37,
            "POSITION": 36,
            "TEXCOORD_0": 38
          },
          "indices": 39,
          "material": 0,
          "mode": 4
        }
      ]
    },
    {
      "name": "Object_10",
      "primitives": [
        {
          "attributes": {
            "NORMAL": 41,
            "POSITION": 40,
            "TEXCOORD_0": 42
          },
          "indices": 43,
          "material": 0,
          "mode": 4
        }
      ]
    },
    {
      "name": "Object_11",
      "primitives": [
        {
          "attributes": {
            "NORMAL": 45,
            "POSITION": 44,
            "TEXCOORD_0": 46
          },
          "indices": 47,
          "material": 0,
          "mode": 4
        }
      ]
    },
    {
      "name": "Object_12",
      "primitives": [
        {
          "attributes": {
            "NORMAL": 49,
            "POSITION": 48,
            "TEXCOORD_0": 50
          },
          "indices": 51,
          "material": 0,
          "mode": 4
        }
      ]
    }
  ],
  "nodes": [
    {
      "children": [
        1
      ],
      "matrix": [
        0.9943138957023621,
        -0.09534838050603865,
        -0.047419533133506796,
        0.0,
        -0.004157864023000002,
        -0.47972124814987205,
        0.8774110674858092,
        0.0,
        -0.10640788823366165,
        -0.8722248673439025,
        -0.4773899614810945,
        0.0,
        1.768101583365933e-06,
        3.386495518498123e-05,
        -4.918523700325742e-06,
        1.0
      ],
      "name": "Sketchfab_model"
    },
    {
      "children": [
        2,
        3,
        4,
        5,
        6,
        7,
        8,
        9,
        10,
        11,
        12,
        13,
        14
      ],
      "matrix": [
        1.0,
        0.0,
        0.0,
        0.0,
        0.0,
        1.0,
        0.0,
        0.0,
        0.0,
        0.0,
        1.0,
        0.0,
        -5.267591953277588,
        -6.3583149909973145,
        -3.9641740322113037,
        1.0
      ],
      "name": "model.obj.cleaner.gles"
    },
    {
      "mesh": 0,
      "name": "Object_2"
    },
    {
      "mesh": 1,
      "name": "Object_3"
    },
    {
      "mesh": 2,
      "name": "Object_4"
    },
    {
      "mesh": 3,
      "name": "Object_5"
    },
    {
      "mesh": 4,
      "name": "Object_6"
    },
    {
      "mesh": 5,
      "name": "Object_7"
    },
    {
      "mesh": 6,
      "name": "Object_8"
    },
    {
      "mesh": 7,
      "name": "Object_9"
    },
    {
      "mesh": 8,
      "name": "Object_10"
    },
    {
      "mesh": 9,
      "name": "Object_11"
    },
    {
      "mesh": 10,
      "name": "Object_12"
    },
    {
      "mesh": 11,
      "name": "Object_13"
    },
    {
      "mesh": 12,
      "name": "Object_14"
    }
  ],
  "samplers": [
    {
      "magFilter": 9729,
      "minFilter": 9987,
      "wrapS": 10497,
      "wrapT": 10497
    }
  ],
  "scene": 0,
  "scenes": [
    {
      "name": "Sketchfab_Scene",
      "nodes": [
        0
      ]
    }
  ],
  "textures": [
    {
      "sampler": 0,
      "source": 0
    }
  ]
}
