{
  "accessors": [
    {
      "bufferView": 2,
      "componentType": 5126,
      "count": 8628,
      "max": [
        1.534842610359192,
        0.3794587254524231,
        1.6860101222991943
      ],
      "min": [
        -1.4259289503097534,
        -0.4082493782043457,
        -1.2462172508239746
      ],
      "type": "VEC3"
    },
    {
      "bufferView": 2,
      "byteOffset": 103536,
      "componentType": 5126,
      "count": 8628,
      "max": [
        0.9996241927146912,
        0.9997349381446838,
        0.9985488653182983
      ],
      "min": [
        -0.9999151229858398,
        -0.999990701675415,
        -0.9998723268508911
      ],
      "type": "VEC3"
    },
    {
      "bufferView": 3,
      "componentType": 5126,
      "count": 8628,
      "max": [
        0.9990843534469604,
        0.999933660030365,
        0.9997738003730774,
        1.0
      ],
      "min": [
        -0.9999241828918457,
        -0.9997175335884094,
        -0.9822624325752258,
        1.0
      ],
      "type": "VEC4"
    },
    {
      "bufferView": 1,
      "componentType": 5126,
      "count": 8628,
      "max": [
        0.8271967172622681,
        0.9980467557907104
      ],
      "min": [
        0.0019531234866008162,
        0.0019531233701854944
      ],
      "type": "VEC2"
    },
    {
      "bufferView": 1,
      "byteOffset": 69024,
      "componentType": 5126,
      "count": 8628,
      "max": [
        0.8271967172622681,
        0.9980467557907104
      ],
      "min": [
        0.0019531234866008162,
        0.0019531233701854944
      ],
      "type": "VEC2"
    },
    {
      "bufferView": 0,
      "componentType": 5125,
      "count": 49992,
      "type": "SCALAR"
    }
  ],
  "asset": {
    "extras": {
      "author": "kodai100 (https://sketchfab.com/kodai100)",
      "license": "CC-BY-4.0 (http://creativecommons.org/licenses/by/4.0/)",
      "source": "https://sketchfab.com/3d-models/starfish-10d31cb05a1844bb89e83ec0827196d9",
      "title": "Starfish"
    },
    "generator": "Sketchfab-12.67.0",
    "version": "2.0"
  },
  "bufferViews": [
    {
      "buffer": 0,
      "byteLength": 199968,
      "name": "floatBufferViews",
      "target": 34963
    },
    {
      "buffer": 0,
      "byteLength": 138048,
      "byteOffset": 199968,
      "byteStride": 8,
      "name": "floatBufferViews",
      "target": 34962
    },
    {
      "buffer": 0,
      "byteLength": 207072,
      "byteOffset": 338016,
      "byteStride": 12,
      "name": "floatBufferViews",
      "target": 34962
    },
    {
      "buffer": 0,
      "byteLength": 138048,
      "byteOffset": 545088,
      "byteStride": 16,
      "name": "floatBufferViews",
      "target": 34962
    }
  ],
  "buffers": [
    {
      "byteLength": 683136,
      "uri": "scene.bin"
    }
  ],
  "images": [
    {
      "uri": "textures/PM3D_Sphere3D_1_baseColor.png"
    },
    {
      "uri": "textures/PM3D_Sphere3D_1_metallicRoughness.png"
    },
    {
      "uri": "textures/PM3D_Sphere3D_1_normal.png"
    }
  ],
  "materials": [
    {
      "doubleSided": true,
      "name": "PM3D_Sphere3D_1",
      "normalTexture": {
        "index": 2
      },
      "pbrMetallicRoughness": {
        "baseColorTexture": {
          "index": 0
        },
        "metallicRoughnessTexture": {
          "index": 1
        }
      }
    }
  ],
  "meshes": [
    {
      "name": "PM3D_Sphere3D_1_PM3D_Sphere3D_1_0",
      "primitives": [
        {
          "attributes": {
            "NORMAL": 1,
            "POSITION": 0,
            "TANGENT": 2,
            "TEXCOORD_0": 3,
            "TEXCOORD_1": 4
          },
          "indices": 5,
          "material": 0,
          "mode": 4
        }
      ]
    }
  ],
  "nodes": [
    {
      "children": [
        1
      ],
      "matrix": [
        1.0,
        0.0,
        0.0,
        0.0,
        0.0,
        2.220446049250313e-16,
        -1.0,
        0.0,
        0.0,
        1.0,
        2.220446049250313e-16,
        0.0,
        0.0,
        0.0,
        0.0,
        1.0
      ],
      "name": "Sketchfab_model"
    },
    {
      "children": [
        2
      ],
      "matrix": [
        1.0,
        0.0,
        0.0,
        0.0,
        0.0,
        0.0,
        1.0,
        0.0,
        0.0,
        -1.0,
        0.0,
        0.0,
        0.0,
        0.0,
        0.0,
        1.0
      ],
      "name": "e7ef324620474d629384c22bcae10b5f.fbx"
    },
    {
      "children": [
        3
      ],
      "name": "RootNode"
    },
    {
      "children": [
        4
      ],
      "name": "PM3D_Sphere3D_1"
    },
    {
      "mesh": 0,
      "name": "PM3D_Sphere3D_1_PM3D_Sphere3D_1_0"
    }
  ],
  "samplers": [
    {
      "magFilter": 9729,
      "minFilter": 9987,
      "wrapS": 10497,
      "wrapT": 10497
    }
  ],
  "scene": 0,
  "scenes": [
    {
      "name": "Sketchfab_Scene",
      "nodes": [
        0
      ]
    }
  ],
  "textures": [
    {
      "sampler": 0,
      "source": 0
    },
    {
      "sampler": 0,
      "source": 1
    },
    {
      "sampler": 0,
      "source": 2
    }
  ]
}
