{
  "accessors": [
    {
      "bufferView": 2,
      "componentType": 5126,
      "count": 65532,
      "max": [
        12.192890167236328,
        15.455628395080566,
        14.89231014251709
      ],
      "min": [
        -14.865133285522461,
        -5.757143020629883,
        -12.303235054016113
      ],
      "type": "VEC3"
    },
    {
      "bufferView": 2,
      "byteOffset": 786384,
      "componentType": 5126,
      "count": 65532,
      "max": [
        0.9999856352806091,
        0.9999764561653137,
        0.9999412298202515
      ],
      "min": [
        -0.9999382495880127,
        -0.9999859929084778,
        -0.9999522566795349
      ],
      "type": "VEC3"
    },
    {
      "bufferView": 1,
      "componentType": 5126,
      "count": 65532,
      "max": [
        0.9981719851493835,
        0.9990100264549255
      ],
      "min": [
        0.0009879999561235309,
        0.0019160000374540687
      ],
      "type": "VEC2"
    },
    {
      "bufferView": 0,
      "componentType": 5125,
      "count": 237387,
      "type": "SCALAR"
    },
    {
      "bufferView": 2,
      "byteOffset": 1572768,
      "componentType": 5126,
      "count": 23417,
      "max": [
        5.687910079956055,
        15.447454452514648,
        7.313958168029785
      ],
      "min": [
        -14.866113662719727,
        -6.749888896942139,
        -13.201059341430664
      ],
      "type": "VEC3"
    },
    {
      "bufferView": 2,
      "byteOffset": 1853772,
      "componentType": 5126,
      "count": 23417,
      "max": [
        0.9998665452003479,
        0.9994531273841858,
        0.9997868537902832
      ],
      "min": [
        -0.9998787641525269,
        -0.9999942183494568,
        -0.9999683499336243
      ],
      "type": "VEC3"
    },
    {
      "bufferView": 1,
      "byteOffset": 524256,
      "componentType": 5126,
      "count": 23417,
      "max": [
        0.9978740215301514,
        0.9990209937095642
      ],
      "min": [
        0.000977999996393919,
        0.001491999952122569
      ],
      "type": "VEC2"
    },
    {
      "bufferView": 0,
      "byteOffset": 949548,
      "componentType": 5125,
      "count": 81474,
      "type": "SCALAR"
    },
    {
      "bufferView": 2,
      "byteOffset": 2134776,
      "componentType": 5126,
      "count": 65532,
      "max": [
        11.169779777526855,
        14.96300220489502,
        14.788040161132813
      ],
      "min": [
        -14.054862976074219,
        -6.386383056640625,
        -8.81734561920166
      ],
      "type": "VEC3"
    },
    {
      "bufferView": 2,
      "byteOffset": 2921160,
      "componentType": 5126,
      "count": 65532,
      "max": [
        0.9999651312828064,
        0.9999811053276062,
        0.999898374080658
      ],
      "min": [
        -0.9999771118164063,
        -0.9999942183494568,
        -0.9999128580093384
      ],
      "type": "VEC3"
    },
    {
      "bufferView": 1,
      "byteOffset": 711592,
      "componentType": 5126,
      "count": 65532,
      "max": [
        0.9988600015640259,
        0.9996659755706787
      ],
      "min": [
        0.0009879999561235309,
        0.0021329999435693026
      ],
      "type": "VEC2"
    },
    {
      "bufferView": 0,
      "byteOffset": 1275444,
      "componentType": 5125,
      "count": 230976,
      "type": "SCALAR"
    },
    {
      "bufferView": 2,
      "byteOffset": 3707544,
      "componentType": 5126,
      "count": 44163,
      "max": [
        12.369878768920898,
        13.52192211151123,
        10.8714017868042
      ],
      "min": [
        -13.992369651794434,
        -6.888521194458008,
        -14.117074012756348
      ],
      "type": "VEC3"
    },
    {
      "bufferView": 2,
      "byteOffset": 4237500,
      "componentType": 5126,
      "count": 44163,
      "max": [
        0.9998902678489685,
        0.9999463558197021,
        0.9999998807907104
      ],
      "min": [
        -0.9999589920043945,
        -0.9999498724937439,
        -0.9999522566795349
      ],
      "type": "VEC3"
    },
    {
      "bufferView": 1,
      "byteOffset": 1235848,
      "componentType": 5126,
      "count": 44163,
      "max": [
        0.9988369941711426,
        0.999023973941803
      ],
      "min": [
        6.0999998822808266e-05,
        0.0010900000343099236
      ],
      "type": "VEC2"
    },
    {
      "bufferView": 0,
      "byteOffset": 2199348,
      "componentType": 5125,
      "count": 150723,
      "type": "SCALAR"
    },
    {
      "bufferView": 2,
      "byteOffset": 4767456,
      "componentType": 5126,
      "count": 65532,
      "max": [
        12.136186599731445,
        14.266534805297852,
        14.89231014251709
      ],
      "min": [
        -14.277918815612793,
        -6.0172200202941895,
        -14.10739517211914
      ],
      "type": "VEC3"
    },
    {
      "bufferView": 2,
      "byteOffset": 5553840,
      "componentType": 5126,
      "count": 65532,
      "max": [
        0.9999740123748779,
        0.9998583793640137,
        0.9999998807907104
      ],
      "min": [
        -0.9999771118164063,
        -0.9999896287918091,
        -0.9999399781227112
      ],
      "type": "VEC3"
    },
    {
      "bufferView": 1,
      "byteOffset": 1589152,
      "componentType": 5126,
      "count": 65532,
      "max": [
        0.9977059960365295,
        0.9990149736404419
      ],
      "min": [
        0.0009830000344663858,
        0.0022279999684542418
      ],
      "type": "VEC2"
    },
    {
      "bufferView": 0,
      "byteOffset": 2802240,
      "componentType": 5125,
      "count": 235596,
      "type": "SCALAR"
    },
    {
      "bufferView": 2,
      "byteOffset": 6340224,
      "componentType": 5126,
      "count": 40158,
      "max": [
        5.664245128631592,
        15.290440559387207,
        14.661717414855957
      ],
      "min": [
        -14.28541088104248,
        -6.374966144561768,
        -3.2088370323181152
      ],
      "type": "VEC3"
    },
    {
      "bufferView": 2,
      "byteOffset": 6822120,
      "componentType": 5126,
      "count": 40158,
      "max": [
        0.9999843835830688,
        0.9999425411224365,
        0.9999639987945557
      ],
      "min": [
        -0.9999386668205261,
        -0.9999994039535522,
        -0.9999683499336243
      ],
      "type": "VEC3"
    },
    {
      "bufferView": 1,
      "byteOffset": 2113408,
      "componentType": 5126,
      "count": 40158,
      "max": [
        0.9982110261917114,
        0.9990209937095642
      ],
      "min": [
        0.0009869999485090375,
        0.0014179999707266688
      ],
      "type": "VEC2"
    },
    {
      "bufferView": 0,
      "byteOffset": 3744624,
      "componentType": 5125,
      "count": 138069,
      "type": "SCALAR"
    },
    {
      "bufferView": 2,
      "byteOffset": 7304016,
      "componentType": 5126,
      "count": 65532,
      "max": [
        12.5499849319458,
        9.693429946899414,
        14.753011703491211
      ],
      "min": [
        -13.9181547164917,
        -6.014101982116699,
        -11.703521728515625
      ],
      "type": "VEC3"
    },
    {
      "bufferView": 2,
      "byteOffset": 8090400,
      "componentType": 5126,
      "count": 65532,
      "max": [
        0.9999843835830688,
        0.9999811053276062,
        0.9999850988388062
      ],
      "min": [
        -0.9998223781585693,
        -0.9999257326126099,
        -0.999962329864502
      ],
      "type": "VEC3"
    },
    {
      "bufferView": 1,
      "byteOffset": 2434672,
      "componentType": 5126,
      "count": 65532,
      "max": [
        0.999019980430603,
        0.9980409741401672
      ],
      "min": [
        6.0999998822808266e-05,
        0.0020520000252872705
      ],
      "type": "VEC2"
    },
    {
      "bufferView": 0,
      "byteOffset": 4296900,
      "componentType": 5125,
      "count": 207888,
      "type": "SCALAR"
    },
    {
      "bufferView": 2,
      "byteOffset": 8876784,
      "componentType": 5126,
      "count": 65117,
      "max": [
        12.509678840637207,
        13.811635971069336,
        14.354456901550293
      ],
      "min": [
        -13.365675926208496,
        -6.860828876495361,
        -13.775577545166016
      ],
      "type": "VEC3"
    },
    {
      "bufferView": 2,
      "byteOffset": 9658188,
      "componentType": 5126,
      "count": 65117,
      "max": [
        0.9999740123748779,
        0.9999982118606567,
        0.9999632239341736
      ],
      "min": [
        -0.9999474883079529,
        -0.9999896287918091,
        -0.999962329864502
      ],
      "type": "VEC3"
    },
    {
      "bufferView": 1,
      "byteOffset": 2958928,
      "componentType": 5126,
      "count": 65117,
      "max": [
        0.9989929795265198,
        0.9980430006980896
      ],
      "min": [
        0.000981000019237399,
        0.002088000066578388
      ],
      "type": "VEC2"
    },
    {
      "bufferView": 0,
      "byteOffset": 5128452,
      "componentType": 5125,
      "count": 198945,
      "type": "SCALAR"
    },
    {
      "bufferView": 2,
      "byteOffset": 10439592,
      "componentType": 5126,
      "count": 7068,
      "max": [
        9.566750526428223,
        9.25046157836914,
        13.272302627563477
      ],
      "min": [
        -13.847949981689453,
        -4.880195140838623,
        -10.73034954071045
      ],
      "type": "VEC3"
    },
    {
      "bufferView": 2,
      "byteOffset": 10524408,
      "componentType": 5126,
      "count": 7068,
      "max": [
        0.999820351600647,
        0.9997791051864624,
        0.9907511472702026
      ],
      "min": [
        -0.9850327372550964,
        -0.9862607717514038,
        -0.9978253841400146
      ],
      "type": "VEC3"
    },
    {
      "bufferView": 0,
      "byteOffset": 5924232,
      "componentType": 5125,
      "count": 17979,
      "type": "SCALAR"
    },
    {
      "bufferView": 2,
      "byteOffset": 10609224,
      "componentType": 5126,
      "count": 73,
      "max": [
        -5.487544059753418,
        7.388096809387207,
        -0.45202600955963135
      ],
      "min": [
        -6.045155048370361,
        6.696115970611572,
        -1.8541769981384277
      ],
      "type": "VEC3"
    },
    {
      "bufferView": 2,
      "byteOffset": 10610100,
      "componentType": 5126,
      "count": 73,
      "max": [
        -0.31259411573410034,
        0.6920769214630127,
        0.5485958456993103
      ],
      "min": [
        -0.9913268685340881,
        -0.9460710287094116,
        0.0047720009461045265
      ],
      "type": "VEC3"
    },
    {
      "bufferView": 1,
      "byteOffset": 3479864,
      "componentType": 5126,
      "count": 73,
      "max": [
        0.03125,
        1.0
      ],
      "min": [
        0.0,
        0.9808940291404724
      ],
      "type": "VEC2"
    },
    {
      "bufferView": 0,
      "byteOffset": 5996148,
      "componentType": 5125,
      "count": 249,
      "type": "SCALAR"
    }
  ],
  "asset": {
    "extras": {
      "author": "thehydrous (https://sketchfab.com/thehydro.us)",
      "license": "CC-BY-NC-SA-4.0 (http://creativecommons.org/licenses/by-nc-sa/4.0/)",
      "source": "https://sketchfab.com/3d-models/pocillopora-eydouxi-b2a7aef9f4814de09d42546c1a974cd0",
      "title": "Pocillopora eydouxi"
    },
    "generator": "Sketchfab-12.68.0",
    "version": "2.0"
  },
  "bufferViews": [
    {
      "buffer": 0,
      "byteLength": 5997144,
      "name": "floatBufferViews",
      "target": 34963
    },
    {
      "buffer": 0,
      "byteLength": 3480448,
      "byteOffset": 5997144,
      "byteStride": 8,
      "name": "floatBufferViews",
      "target": 34962
    },
    {
      "buffer": 0,
      "byteLength": 10610976,
      "byteOffset": 9477592,
      "byteStride": 12,
      "name": "floatBufferViews",
      "target": 34962
    }
  ],
  "buffers": [
    {
      "byteLength": 20088568,
      "uri": "scene.bin"
    }
  ],
  "extensionsUsed": [
    "KHR_materials_unlit"
  ],
  "images": [
    {
      "uri": "textures/Material_0_baseColor.jpeg"
    },
    {
      "uri": "textures/Material_1_baseColor.jpeg"
    },
    {
      "uri": "textures/Material_2_baseColor.jpeg"
    },
    {
      "uri": "textures/Material_3_baseColor.jpeg"
    },
    {
      "uri": "textures/Material_5_baseColor.jpeg"
    }
  ],
  "materials": [
    {
      "doubleSided": true,
      "extensions": {
        "KHR_materials_unlit": {}
      },
      "name": "Material_0",
      "pbrMetallicRoughness": {
        "baseColorTexture": {
          "index": 0
        },
        "metallicFactor": 0.0
      }
    },
    {
      "doubleSided": true,
      "extensions": {
        "KHR_materials_unlit": {}
      },
      "name": "Material_1",
      "pbrMetallicRoughness": {
        "baseColorTexture": {
          "index": 1
        },
        "metallicFactor": 0.0
      }
    },
    {
      "doubleSided": true,
      "extensions": {
        "KHR_materials_unlit": {}
      },
      "name": "Material_2",
      "pbrMetallicRoughness": {
        "baseColorTexture": {
          "index": 2
        },
        "metallicFactor": 0.0
      }
    },
    {
      "doubleSided": true,
      "extensions": {
        "KHR_materials_unlit": {}
      },
      "name": "Material_3",
      "pbrMetallicRoughness": {
        "baseColorTexture": {
          "index": 3
        },
        "metallicFactor": 0.0
      }
    },
    {
      "doubleSided": true,
      "extensions": {
        "KHR_materials_unlit": {}
      },
      "name": "Material_4",
      "pbrMetallicRoughness": {
        "baseColorFactor": [
          0.5,
          0.5,
          0.5,
          1.0
        ],
        "metallicFactor": 0.0
      }
    },
    {
      "doubleSided": true,
      "extensions": {
        "KHR_materials_unlit": {}
      },
      "name": "Material_5",
      "pbrMetallicRoughness": {
        "baseColorTexture": {
          "index": 4
        },
        "metallicFactor": 0.0
      }
    }
  ],
  "meshes": [
    {
      "name": "Object_0",
      "primitives": [
        {
          "attributes": {
            "NORMAL": 1,
            "POSITION": 0,
            "TEXCOORD_0": 2
          },
          "indices": 3,
          "material": 0,
          "mode": 4
        }
      ]
    },
    {
      "name": "Object_1",
      "primitives": [
        {
          "attributes": {
            "NORMAL": 5,
            "POSITION": 4,
            "TEXCOORD_0": 6
          },
          "indices": 7,
          "material": 0,
          "mode": 4
        }
      ]
    },
    {
      "name": "Object_2",
      "primitives": [
        {
          "attributes": {
            "NORMAL": 9,
            "POSITION": 8,
            "TEXCOORD_0": 10
          },
          "indices": 11,
          "material": 1,
          "mode": 4
        }
      ]
    },
    {
      "name": "Object_3",
      "primitives": [
        {
          "attributes": {
            "NORMAL": 13,
            "POSITION": 12,
            "TEXCOORD_0": 14
          },
          "indices": 15,
          "material": 1,
          "mode": 4
        }
      ]
    },
    {
      "name": "Object_4",
      "primitives": [
        {
          "attributes": {
            "NORMAL": 17,
            "POSITION": 16,
            "TEXCOORD_0": 18
          },
          "indices": 19,
          "material": 2,
          "mode": 4
        }
      ]
    },
    {
      "name": "Object_5",
      "primitives": [
        {
          "attributes": {
            "NORMAL": 21,
            "POSITION": 20,
            "TEXCOORD_0": 22
          },
          "indices": 23,
          "material": 2,
          "mode": 4
        }
      ]
    },
    {
      "name": "Object_6",
      "primitives": [
        {
          "attributes": {
            "NORMAL": 25,
            "POSITION": 24,
            "TEXCOORD_0": 26
          },
          "indices": 27,
          "material": 3,
          "mode": 4
        }
      ]
    },
    {
      "name": "Object_7",
      "primitives": [
        {
          "attributes": {
            "NORMAL": 29,
            "POSITION": 28,
            "TEXCOORD_0": 30
          },
          "indices": 31,
          "material": 3,
          "mode": 4
        }
      ]
    },
    {
      "name": "Object_8",
      "primitives": [
        {
          "attributes": {
            "NORMAL": 33,
            "POSITION": 32
          },
          "indices": 34,
          "material": 4,
          "mode": 4
        }
      ]
    },
    {
      "name": "Object_9",
      "primitives": [
        {
          "attributes": {
            "NORMAL": 36,
            "POSITION": 35,
            "TEXCOORD_0": 37
          },
          "indices": 38,
          "material": 5,
          "mode": 4
        }
      ]
    }
  ],
  "nodes": [
    {
      "children": [
        1
      ],
      "matrix": [
        0.9993401765823364,
        -0.03615712374448776,
        -0.0034452620893716895,
        0.0,
        -0.03547360748052597,
        -0.9512577056884765,
        -0.3063500523567202,
        0.0,
        0.0077994042076170444,
        0.3062701225280764,
        -0.9519127011299132,
        0.0,
        0.14816565811634064,
        4.3018250465393075,
        -2.606264352798461,
        1.0
      ],
      "name": "Sketchfab_model"
    },
    {
      "children": [
        2,
        3,
        4,
        5,
        6,
        7,
        8,
        9,
        10,
        11
      ],
      "name": "Coral 32 mesh-90.obj.cleaner.materialmerger.gles"
    },
    {
      "mesh": 0,
      "name": "Object_2"
    },
    {
      "mesh": 1,
      "name": "Object_3"
    },
    {
      "mesh": 2,
      "name": "Object_4"
    },
    {
      "mesh": 3,
      "name": "Object_5"
    },
    {
      "mesh": 4,
      "name": "Object_6"
    },
    {
      "mesh": 5,
      "name": "Object_7"
    },
    {
      "mesh": 6,
      "name": "Object_8"
    },
    {
      "mesh": 7,
      "name": "Object_9"
    },
    {
      "mesh": 8,
      "name": "Object_10"
    },
    {
      "mesh": 9,
      "name": "Object_11"
    }
  ],
  "samplers": [
    {
      "magFilter": 9729,
      "minFilter": 9987,
      "wrapS": 10497,
      "wrapT": 10497
    }
  ],
  "scene": 0,
  "scenes": [
    {
      "name": "Sketchfab_Scene",
      "nodes": [
        0
      ]
    }
  ],
  "textures": [
    {
      "sampler": 0,
      "source": 0
    },
    {
      "sampler": 0,
      "source": 1
    },
    {
      "sampler": 0,
      "source": 2
    },
    {
      "sampler": 0,
      "source": 3
    },
    {
      "sampler": 0,
      "source": 4
    }
  ]
}
