{
  "accessors": [
    {
      "bufferView": 2,
      "componentType": 5126,
      "count": 1962,
      "max": [
        2.2264583110809326,
        2.802290678024292,
        17.123329162597656
      ],
      "min": [
        -3.3678228855133057,
        -0.9561002254486084,
        -0.040549322962760925
      ],
      "type": "VEC3"
    },
    {
      "bufferView": 2,
      "byteOffset": 23544,
      "componentType": 5126,
      "count": 1962,
      "max": [
        0.9999998807907104,
        0.9999817609786987,
        0.5761402249336243
      ],
      "min": [
        -0.9999995231628418,
        -1.0,
        -0.388362854719162
      ],
      "type": "VEC3"
    },
    {
      "bufferView": 3,
      "componentType": 5126,
      "count": 1962,
      "max": [
        0.9997299909591675,
        0.9990742802619934,
        0.9628322720527649,
        1.0
      ],
      "min": [
        -0.9982630014419556,
        -0.9999791979789734,
        -0.9436221122741699,
        1.0
      ],
      "type": "VEC4"
    },
    {
      "bufferView": 1,
      "componentType": 5126,
      "count": 1962,
      "max": [
        0.530132532119751,
        0.981461763381958
      ],
      "min": [
        0.07182542234659195,
        0.018538296222686768
      ],
      "type": "VEC2"
    },
    {
      "bufferView": 0,
      "componentType": 5125,
      "count": 7812,
      "type": "SCALAR"
    },
    {
      "bufferView": 2,
      "byteOffset": 47088,
      "componentType": 5126,
      "count": 714,
      "max": [
        0.422183632850647,
        2.5300965309143066,
        16.826446533203125
      ],
      "min": [
        -2.1510419845581055,
        0.0773620456457138,
        12.246273040771484
      ],
      "type": "VEC3"
    },
    {
      "bufferView": 2,
      "byteOffset": 55656,
      "componentType": 5126,
      "count": 714,
      "max": [
        0.9999865293502808,
        0.9998863935470581,
        0.9998220205307007
      ],
      "min": [
        -0.9999260902404785,
        -0.9997193813323975,
        -0.9998105764389038
      ],
      "type": "VEC3"
    },
    {
      "bufferView": 3,
      "byteOffset": 31392,
      "componentType": 5126,
      "count": 714,
      "max": [
        0.9996089935302734,
        0.9999849200248718,
        0.8094326257705688,
        1.0
      ],
      "min": [
        -0.9999510049819946,
        -0.9999917149543762,
        -0.7024236917495728,
        1.0
      ],
      "type": "VEC4"
    },
    {
      "bufferView": 1,
      "byteOffset": 15696,
      "componentType": 5126,
      "count": 714,
      "max": [
        0.9793314337730408,
        0.9658042192459106
      ],
      "min": [
        0.5849399566650391,
        0.274208664894104
      ],
      "type": "VEC2"
    },
    {
      "bufferView": 0,
      "byteOffset": 31248,
      "componentType": 5125,
      "count": 3744,
      "type": "SCALAR"
    },
    {
      "bufferView": 2,
      "byteOffset": 64224,
      "componentType": 5126,
      "count": 1479,
      "max": [
        1.555308699607849e-07,
        6.810378074645996,
        6.776529788970947
      ],
      "min": [
        -14.59554386138916,
        -6.4612040519714355,
        -5.170678615570068
      ],
      "type": "VEC3"
    },
    {
      "bufferView": 2,
      "byteOffset": 81972,
      "componentType": 5126,
      "count": 1479,
      "max": [
        0.1103886067867279,
        0.9944424629211426,
        0.989098072052002
      ],
      "min": [
        -0.9897682070732117,
        -0.9982572793960571,
        -0.9887104034423828
      ],
      "type": "VEC3"
    },
    {
      "bufferView": 3,
      "byteOffset": 42816,
      "componentType": 5126,
      "count": 1479,
      "max": [
        0.890614926815033,
        0.9991852045059204,
        1.0,
        1.0
      ],
      "min": [
        -0.8655111193656921,
        -0.9990158081054688,
        -0.9996786117553711,
        1.0
      ],
      "type": "VEC4"
    },
    {
      "bufferView": 1,
      "byteOffset": 21408,
      "componentType": 5126,
      "count": 1479,
      "max": [
        0.13479496538639069,
        0.9612621068954468
      ],
      "min": [
        0.07182542234659195,
        0.03419920802116394
      ],
      "type": "VEC2"
    },
    {
      "bufferView": 0,
      "byteOffset": 46224,
      "componentType": 5125,
      "count": 4392,
      "type": "SCALAR"
    },
    {
      "bufferView": 2,
      "byteOffset": 99720,
      "componentType": 5126,
      "count": 1808,
      "max": [
        1.4407740831375122,
        14.652726173400879,
        1.7369999885559082
      ],
      "min": [
        -79.4194107055664,
        -8.705339431762695,
        -30.39423370361328
      ],
      "type": "VEC3"
    },
    {
      "bufferView": 2,
      "byteOffset": 121416,
      "componentType": 5126,
      "count": 1808,
      "max": [
        0.977530300617218,
        0.9999865293502808,
        0.9999990463256836
      ],
      "min": [
        -0.47649797797203064,
        -0.9999865293502808,
        -0.9960461258888245
      ],
      "type": "VEC3"
    },
    {
      "bufferView": 3,
      "byteOffset": 66480,
      "componentType": 5126,
      "count": 1808,
      "max": [
        0.8588897585868835,
        0.999832034111023,
        0.9990803599357605,
        1.0
      ],
      "min": [
        -0.9244726896286011,
        -0.9999909996986389,
        -0.9991304278373718,
        -1.0
      ],
      "type": "VEC4"
    },
    {
      "bufferView": 1,
      "byteOffset": 33240,
      "componentType": 5126,
      "count": 1808,
      "max": [
        0.15793541073799133,
        0.9578250050544739
      ],
      "min": [
        0.04462255910038948,
        0.04217499494552612
      ],
      "type": "VEC2"
    },
    {
      "bufferView": 1,
      "byteOffset": 47704,
      "componentType": 5126,
      "count": 1808,
      "max": [
        0.15793541073799133,
        0.9578250050544739
      ],
      "min": [
        0.04462255910038948,
        0.04217499494552612
      ],
      "type": "VEC2"
    },
    {
      "bufferView": 0,
      "byteOffset": 63792,
      "componentType": 5125,
      "count": 9120,
      "type": "SCALAR"
    }
  ],
  "asset": {
    "extras": {
      "author": "assetfactory (https://sketchfab.com/assetfactory)",
      "license": "CC-BY-4.0 (http://creativecommons.org/licenses/by/4.0/)",
      "source": "https://sketchfab.com/3d-models/underwater-plant-pack-a6edeb75ef784189b20c5fc058ede913",
      "title": "Underwater plant pack"
    },
    "generator": "Sketchfab-12.98.0",
    "version": "2.0"
  },
  "bufferViews": [
    {
      "buffer": 0,
      "byteLength": 100272,
      "name": "floatBufferViews",
      "target": 34963
    },
    {
      "buffer": 0,
      "byteLength": 62168,
      "byteOffset": 100272,
      "byteStride": 8,
      "name": "floatBufferViews",
      "target": 34962
    },
    {
      "buffer": 0,
      "byteLength": 143112,
      "byteOffset": 162440,
      "byteStride": 12,
      "name": "floatBufferViews",
      "target": 34962
    },
    {
      "buffer": 0,
      "byteLength": 95408,
      "byteOffset": 305552,
      "byteStride": 16,
      "name": "floatBufferViews",
      "target": 34962
    }
  ],
  "buffers": [
    {
      "byteLength": 400960,
      "uri": "scene.bin"
    }
  ],
  "images": [
    {
      "uri": "textures/plant_3_blade_baseColor.jpeg"
    },
    {
      "uri": "textures/plant_3_blade_normal.jpeg"
    },
    {
      "uri": "textures/plant_3_reed_baseColor.jpeg"
    },
    {
      "uri": "textures/plant_3_reed_normal.jpeg"
    },
    {
      "uri": "textures/plant_1_baseColor.jpeg"
    },
    {
      "uri": "textures/plant_2_baseColor.jpeg"
    },
    {
      "uri": "textures/plant_2_normal.jpeg"
    }
  ],
  "materials": [
    {
      "doubleSided": true,
      "name": "plant_3_blade",
      "normalTexture": {
        "index": 1
      },
      "pbrMetallicRoughness": {
        "baseColorTexture": {
          "index": 0
        },
        "metallicFactor": 0.0,
        "roughnessFactor": 0.4
      }
    },
    {
      "doubleSided": true,
      "name": "plant_3_reed",
      "normalTexture": {
        "index": 3
      },
      "pbrMetallicRoughness": {
        "baseColorTexture": {
          "index": 2
        },
        "metallicFactor": 0.0,
        "roughnessFactor": 0.8
      }
    },
    {
      "doubleSided": true,
      "name": "plant_1",
      "normalTexture": {
        "index": 1
      },
      "pbrMetallicRoughness": {
        "baseColorTexture": {
          "index": 4
        },
        "metallicFactor": 0.0,
        "roughnessFactor": 0.4
      }
    },
    {
      "doubleSided": true,
      "name": "plant_2",
      "normalTexture": {
        "index": 6
      },
      "pbrMetallicRoughness": {
        "baseColorTexture": {
          "index": 5
        },
        "metallicFactor": 0.0,
        "roughnessFactor": 0.4
      }
    }
  ],
  "meshes": [
    {
      "name": "plant_3_plant_3_blade_0",
      "primitives": [
        {
          "attributes": {
            "NORMAL": 1,
            "POSITION": 0,
            "TANGENT": 2,
            "TEXCOORD_0": 3
          },
          "indices": 4,
          "material": 0,
          "mode": 4
        }
      ]
    },
    {
      "name": "plant_3_plant_3_reed_0",
      "primitives": [
        {
          "attributes": {
            "NORMAL": 6,
            "POSITION": 5,
            "TANGENT": 7,
            "TEXCOORD_0": 8
          },
          "indices": 9,
          "material": 1,
          "mode": 4
        }
      ]
    },
    {
      "name": "plant_1_plant_1_0",
      "primitives": [
        {
          "attributes": {
            "NORMAL": 11,
            "POSITION": 10,
            "TANGENT": 12,
            "TEXCOORD_0": 13
          },
          "indices": 14,
          "material": 2,
          "mode": 4
        }
      ]
    },
    {
      "name": "plant_2_plant_2_0",
      "primitives": [
        {
          "attributes": {
            "NORMAL": 16,
            "POSITION": 15,
            "TANGENT": 17,
            "TEXCOORD_0": 18,
            "TEXCOORD_1": 19
          },
          "indices": 20,
          "material": 3,
          "mode": 4
        }
      ]
    }
  ],
  "nodes": [
    {
      "children": [
        1
      ],
      "matrix": [
        1.0,
        0.0,
        0.0,
        0.0,
        0.0,
        2.220446049250313e-16,
        -1.0,
        0.0,
        0.0,
        1.0,
        2.220446049250313e-16,
        0.0,
        0.0,
        0.0,
        0.0,
        1.0
      ],
      "name": "Sketchfab_model"
    },
    {
      "children": [
        2
      ],
      "matrix": [
        0.009999999776482582,
        0.0,
        0.0,
        0.0,
        0.0,
        0.0,
        0.009999999776482582,
        0.0,
        0.0,
        -0.009999999776482582,
        0.0,
        0.0,
        0.0,
        0.0,
        0.0,
        1.0
      ],
      "name": "89282d07ef534f6ba2868505ddf5855e.fbx"
    },
    {
      "children": [
        3,
        6,
        8
      ],
      "name": "RootNode"
    },
    {
      "children": [
        4,
        5
      ],
      "matrix": [
        100.0,
        0.0,
        0.0,
        0.0,
        0.0,
        -1.629206793918314e-05,
        -99.99999999999868,
        0.0,
        0.0,
        99.99999999999868,
        -1.629206793918314e-05,
        0.0,
        26.43566131591797,
        0.0,
        392.1289978027344,
        1.0
      ],
      "name": "plant_3"
    },
    {
      "mesh": 0,
      "name": "plant_3_plant_3_blade_0"
    },
    {
      "mesh": 1,
      "name": "plant_3_plant_3_reed_0"
    },
    {
      "children": [
        7
      ],
      "matrix": [
        6.77461339952826e-06,
        -89.73247528076136,
        4.34411119093166e-06,
        0.0,
        22.51864888833085,
        -2.504985603679895e-06,
        -86.86096690836791,
        0.0,
        86.86096690836767,
        7.647989017269975e-06,
        22.518648888330564,
        0.0,
        -511.0895690917969,
        4.405943870544434,
        -101.33670806884766,
        1.0
      ],
      "name": "plant_1"
    },
    {
      "mesh": 2,
      "name": "plant_1_plant_1_0"
    },
    {
      "children": [
        9
      ],
      "matrix": [
        -0.7453927441056014,
        -15.695962746220756,
        -4.645145645324284,
        0.0,
        21.91480238557586,
        6.124426938586699e-06,
        -3.5166240335082217,
        0.0,
        3.3685662846141917,
        -6.372492288734524,
        20.992129018843393,
        0.0,
        401.6341552734375,
        -0.5469189882278442,
        -30.927444458007813,
        1.0
      ],
      "name": "plant_2"
    },
    {
      "mesh": 3,
      "name": "plant_2_plant_2_0"
    }
  ],
  "samplers": [
    {
      "magFilter": 9729,
      "minFilter": 9987,
      "wrapS": 10497,
      "wrapT": 10497
    }
  ],
  "scene": 0,
  "scenes": [
    {
      "name": "Sketchfab_Scene",
      "nodes": [
        0
      ]
    }
  ],
  "textures": [
    {
      "sampler": 0,
      "source": 0
    },
    {
      "sampler": 0,
      "source": 1
    },
    {
      "sampler": 0,
      "source": 2
    },
    {
      "sampler": 0,
      "source": 3
    },
    {
      "sampler": 0,
      "source": 4
    },
    {
      "sampler": 0,
      "source": 5
    },
    {
      "sampler": 0,
      "source": 6
    }
  ]
}
