{
  "accessors": [
    {
      "bufferView": 2,
      "componentType": 5126,
      "count": 65532,
      "max": [
        13.317642211914063,
        -78.23773956298828,
        69.57357788085938
      ],
      "min": [
        -56.774986267089844,
        -103.47516632080078,
        6.2246551513671875
      ],
      "type": "VEC3"
    },
    {
      "bufferView": 2,
      "byteOffset": 786384,
      "componentType": 5126,
      "count": 65532,
      "max": [
        0.9998505711555481,
        0.9681465029716492,
        0.9999744892120361
      ],
      "min": [
        -0.9999412298202515,
        -0.9999914765357971,
        -0.9999906420707703
      ],
      "type": "VEC3"
    },
    {
      "bufferView": 1,
      "componentType": 5126,
      "count": 65532,
      "max": [
        0.9980469942092896,
        0.998013973236084
      ],
      "min": [
        0.0019529999699443579,
        0.0019859999883919954
      ],
      "type": "VEC2"
    },
    {
      "bufferView": 0,
      "componentType": 5125,
      "count": 295146,
      "type": "SCALAR"
    },
    {
      "bufferView": 2,
      "byteOffset": 1572768,
      "componentType": 5126,
      "count": 65532,
      "max": [
        40.27153778076172,
        -78.43694305419922,
        69.65003967285156
      ],
      "min": [
        -56.772071838378906,
        -103.9788818359375,
        -0.3069149851799011
      ],
      "type": "VEC3"
    },
    {
      "bufferView": 2,
      "byteOffset": 2359152,
      "componentType": 5126,
      "count": 65532,
      "max": [
        0.9999773502349854,
        0.9955019950866699,
        0.9995154738426208
      ],
      "min": [
        -0.9999098777770996,
        -0.9999674558639526,
        -0.9999417662620544
      ],
      "type": "VEC3"
    },
    {
      "bufferView": 1,
      "byteOffset": 524256,
      "componentType": 5126,
      "count": 65532,
      "max": [
        0.9980469942092896,
        0.998013973236084
      ],
      "min": [
        0.0019529999699443579,
        0.019860999658703804
      ],
      "type": "VEC2"
    },
    {
      "bufferView": 0,
      "byteOffset": 1180584,
      "componentType": 5125,
      "count": 280704,
      "type": "SCALAR"
    },
    {
      "bufferView": 2,
      "byteOffset": 3145536,
      "componentType": 5126,
      "count": 65532,
      "max": [
        48.194557189941406,
        -11.318328857421875,
        69.54750061035156
      ],
      "min": [
        -56.834495544433594,
        -96.88640594482422,
        -69.64952087402344
      ],
      "type": "VEC3"
    },
    {
      "bufferView": 2,
      "byteOffset": 3931920,
      "componentType": 5126,
      "count": 65532,
      "max": [
        0.999995231628418,
        0.9778994917869568,
        0.9999895691871643
      ],
      "min": [
        -0.9999504685401917,
        -0.9999973773956299,
        -0.9999923706054688
      ],
      "type": "VEC3"
    },
    {
      "bufferView": 1,
      "byteOffset": 1048512,
      "componentType": 5126,
      "count": 65532,
      "max": [
        0.9980469942092896,
        0.998013973236084
      ],
      "min": [
        0.0019529999699443579,
        0.0019859999883919954
      ],
      "type": "VEC2"
    },
    {
      "bufferView": 0,
      "byteOffset": 2303400,
      "componentType": 5125,
      "count": 304653,
      "type": "SCALAR"
    },
    {
      "bufferView": 2,
      "byteOffset": 4718304,
      "componentType": 5126,
      "count": 65532,
      "max": [
        57.16044616699219,
        -9.748359680175781,
        69.62710571289063
      ],
      "min": [
        -57.16044616699219,
        -102.09349060058594,
        -69.67146301269531
      ],
      "type": "VEC3"
    },
    {
      "bufferView": 2,
      "byteOffset": 5504688,
      "componentType": 5126,
      "count": 65532,
      "max": [
        0.9999977350234985,
        0.998661458492279,
        0.9999728798866272
      ],
      "min": [
        -0.9999977350234985,
        -0.9999997615814209,
        -0.99997878074646
      ],
      "type": "VEC3"
    },
    {
      "bufferView": 1,
      "byteOffset": 1572768,
      "componentType": 5126,
      "count": 65532,
      "max": [
        0.9980469942092896,
        0.998013973236084
      ],
      "min": [
        0.0019529999699443579,
        0.0019859999883919954
      ],
      "type": "VEC2"
    },
    {
      "bufferView": 0,
      "byteOffset": 3522012,
      "componentType": 5125,
      "count": 313374,
      "type": "SCALAR"
    },
    {
      "bufferView": 2,
      "byteOffset": 6291072,
      "componentType": 5126,
      "count": 59854,
      "max": [
        51.74932098388672,
        -61.12559127807617,
        69.67158508300781
      ],
      "min": [
        -23.136903762817383,
        -107.15118408203125,
        -0.6662750244140625
      ],
      "type": "VEC3"
    },
    {
      "bufferView": 2,
      "byteOffset": 7009320,
      "componentType": 5126,
      "count": 59854,
      "max": [
        0.9998902678489685,
        0.9770917892456055,
        0.9999607801437378
      ],
      "min": [
        -0.9999414682388306,
        -0.9999970197677612,
        -0.9999667406082153
      ],
      "type": "VEC3"
    },
    {
      "bufferView": 1,
      "byteOffset": 2097024,
      "componentType": 5126,
      "count": 59854,
      "max": [
        0.9980469942092896,
        0.998013973236084
      ],
      "min": [
        0.0019529999699443579,
        0.125123992562294
      ],
      "type": "VEC2"
    },
    {
      "bufferView": 0,
      "byteOffset": 4775508,
      "componentType": 5125,
      "count": 306123,
      "type": "SCALAR"
    }
  ],
  "asset": {
    "extras": {
      "author": "thehydrous (https://sketchfab.com/thehydro.us)",
      "license": "CC-BY-NC-SA-4.0 (http://creativecommons.org/licenses/by-nc-sa/4.0/)",
      "source": "https://sketchfab.com/3d-models/acropora-papillare-scene-efdf043f7e0a49a4bafe1ef9556c40fc",
      "title": "Acropora papillare scene"
    },
    "generator": "Sketchfab-12.68.0",
    "version": "2.0"
  },
  "bufferViews": [
    {
      "buffer": 0,
      "byteLength": 6000000,
      "name": "floatBufferViews",
      "target": 34963
    },
    {
      "buffer": 0,
      "byteLength": 2575856,
      "byteOffset": 6000000,
      "byteStride": 8,
      "name": "floatBufferViews",
      "target": 34962
    },
    {
      "buffer": 0,
      "byteLength": 7727568,
      "byteOffset": 8575856,
      "byteStride": 12,
      "name": "floatBufferViews",
      "target": 34962
    }
  ],
  "buffers": [
    {
      "byteLength": 16303424,
      "uri": "scene.bin"
    }
  ],
  "extensionsUsed": [
    "KHR_materials_unlit"
  ],
  "images": [
    {
      "uri": "textures/Material_0_baseColor.jpeg"
    }
  ],
  "materials": [
    {
      "doubleSided": true,
      "extensions": {
        "KHR_materials_unlit": {}
      },
      "name": "Material_0",
      "pbrMetallicRoughness": {
        "baseColorTexture": {
          "index": 0
        },
        "metallicFactor": 0.0
      }
    }
  ],
  "meshes": [
    {
      "name": "Object_0",
      "primitives": [
        {
          "attributes": {
            "NORMAL": 1,
            "POSITION": 0,
            "TEXCOORD_0": 2
          },
          "indices": 3,
          "material": 0,
          "mode": 4
        }
      ]
    },
    {
      "name": "Object_1",
      "primitives": [
        {
          "attributes": {
            "NORMAL": 5,
            "POSITION": 4,
            "TEXCOORD_0": 6
          },
          "indices": 7,
          "material": 0,
          "mode": 4
        }
      ]
    },
    {
      "name": "Object_2",
      "primitives": [
        {
          "attributes": {
            "NORMAL": 9,
            "POSITION": 8,
            "TEXCOORD_0": 10
          },
          "indices": 11,
          "material": 0,
          "mode": 4
        }
      ]
    },
    {
      "name": "Object_3",
      "primitives": [
        {
          "attributes": {
            "NORMAL": 13,
            "POSITION": 12,
            "TEXCOORD_0": 14
          },
          "indices": 15,
          "material": 0,
          "mode": 4
        }
      ]
    },
    {
      "name": "Object_4",
      "primitives": [
        {
          "attributes": {
            "NORMAL": 17,
            "POSITION": 16,
            "TEXCOORD_0": 18
          },
          "indices": 19,
          "material": 0,
          "mode": 4
        }
      ]
    }
  ],
  "nodes": [
    {
      "children": [
        1
      ],
      "matrix": [
        0.6429378390312195,
        -0.06595113128423674,
        -0.7630736827850342,
        0.0,
        0.17917294800281525,
        -0.9556909799575806,
        0.23356325924396493,
        0.0,
        -0.7446663975715637,
        -0.28688880801200856,
        -0.6026332378387452,
        0.0,
        10.472535133361816,
        -55.85975265502931,
        72.10115814208983,
        1.0
      ],
      "name": "Sketchfab_model"
    },
    {
      "children": [
        2,
        3,
        4,
        5,
        6
      ],
      "name": "20170721_Iriomote_Unarizaki_1m_Apapp_dive.obj.cleaner.materialmerger.gles"
    },
    {
      "mesh": 0,
      "name": "Object_2"
    },
    {
      "mesh": 1,
      "name": "Object_3"
    },
    {
      "mesh": 2,
      "name": "Object_4"
    },
    {
      "mesh": 3,
      "name": "Object_5"
    },
    {
      "mesh": 4,
      "name": "Object_6"
    }
  ],
  "samplers": [
    {
      "magFilter": 9729,
      "minFilter": 9987,
      "wrapS": 10497,
      "wrapT": 10497
    }
  ],
  "scene": 0,
  "scenes": [
    {
      "name": "Sketchfab_Scene",
      "nodes": [
        0
      ]
    }
  ],
  "textures": [
    {
      "sampler": 0,
      "source": 0
    }
  ]
}
