{
  "accessors": [
    {
      "bufferView": 2,
      "componentType": 5126,
      "count": 48,
      "max": [
        1.2817033529281616,
        3.778409957885742,
        0.758639395236969
      ],
      "min": [
        -1.1820634603500366,
        -0.28026267886161804,
        -1.5270733833312988
      ],
      "type": "VEC3"
    },
    {
      "bufferView": 2,
      "byteOffset": 576,
      "componentType": 5126,
      "count": 48,
      "max": [
        0.9254559278488159,
        0.15583392977714539,
        0.9964752793312073
      ],
      "min": [
        -0.959705114364624,
        -0.18522508442401886,
        -0.9689180850982666
      ],
      "type": "VEC3"
    },
    {
      "bufferView": 1,
      "componentType": 5126,
      "count": 48,
      "max": [
        0.977726399898529,
        0.9821487665176392
      ],
      "min": [
        0.026903938502073288,
        0.01635691523551941
      ],
      "type": "VEC2"
    },
    {
      "bufferView": 1,
      "byteOffset": 384,
      "componentType": 5126,
      "count": 48,
      "max": [
        0.977726399898529,
        0.9821487665176392
      ],
      "min": [
        0.026903938502073288,
        0.01635691523551941
      ],
      "type": "VEC2"
    },
    {
      "bufferView": 0,
      "componentType": 5125,
      "count": 72,
      "type": "SCALAR"
    },
    {
      "bufferView": 2,
      "byteOffset": 1152,
      "componentType": 5126,
      "count": 6113,
      "max": [
        1.4918224811553955,
        3.513989210128784,
        1.109336018562317
      ],
      "min": [
        -1.6010820865631104,
        -0.07708685100078583,
        -1.3191909790039063
      ],
      "type": "VEC3"
    },
    {
      "bufferView": 2,
      "byteOffset": 74508,
      "componentType": 5126,
      "count": 6113,
      "max": [
        0.9999942779541016,
        1.0,
        0.9992995262145996
      ],
      "min": [
        -0.9999847412109375,
        -1.0,
        -0.9986611008644104
      ],
      "type": "VEC3"
    },
    {
      "bufferView": 3,
      "componentType": 5126,
      "count": 6113,
      "max": [
        0.9993457198143005,
        0.9986609816551208,
        0.999967634677887,
        1.0
      ],
      "min": [
        -0.9999676942825317,
        -0.9983838200569153,
        -0.999999463558197,
        -1.0
      ],
      "type": "VEC4"
    },
    {
      "bufferView": 1,
      "byteOffset": 768,
      "componentType": 5126,
      "count": 6113,
      "max": [
        0.9922157526016235,
        0.9931332468986511
      ],
      "min": [
        0.005455424543470144,
        0.01439020037651062
      ],
      "type": "VEC2"
    },
    {
      "bufferView": 0,
      "byteOffset": 288,
      "componentType": 5125,
      "count": 22125,
      "type": "SCALAR"
    }
  ],
  "asset": {
    "extras": {
      "author": "Sharon Kunne (https://sketchfab.com/sharonkunne)",
      "license": "CC-BY-4.0 (http://creativecommons.org/licenses/by/4.0/)",
      "source": "https://sketchfab.com/3d-models/coral-piece-bd879158d2c9496fa40eb9a8fd8e75f8",
      "title": "Coral Piece"
    },
    "generator": "Sketchfab-12.68.0",
    "version": "2.0"
  },
  "bufferViews": [
    {
      "buffer": 0,
      "byteLength": 88788,
      "name": "floatBufferViews",
      "target": 34963
    },
    {
      "buffer": 0,
      "byteLength": 49672,
      "byteOffset": 88788,
      "byteStride": 8,
      "name": "floatBufferViews",
      "target": 34962
    },
    {
      "buffer": 0,
      "byteLength": 147864,
      "byteOffset": 138460,
      "byteStride": 12,
      "name": "floatBufferViews",
      "target": 34962
    },
    {
      "buffer": 0,
      "byteLength": 97808,
      "byteOffset": 286324,
      "byteStride": 16,
      "name": "floatBufferViews",
      "target": 34962
    }
  ],
  "buffers": [
    {
      "byteLength": 384132,
      "uri": "scene.bin"
    }
  ],
  "images": [
    {
      "uri": "textures/planes_baseColor.png"
    },
    {
      "uri": "textures/lambert3_baseColor.png"
    },
    {
      "uri": "textures/lambert3_metallicRoughness.png"
    },
    {
      "uri": "textures/lambert3_normal.png"
    }
  ],
  "materials": [
    {
      "alphaMode": "BLEND",
      "doubleSided": true,
      "name": "planes",
      "pbrMetallicRoughness": {
        "baseColorTexture": {
          "index": 0
        },
        "metallicFactor": 0.0,
        "roughnessFactor": 0.6
      }
    },
    {
      "doubleSided": true,
      "name": "lambert3",
      "normalTexture": {
        "index": 3,
        "scale": 0.6297637195
      },
      "pbrMetallicRoughness": {
        "baseColorFactor": [
          0.9773246951,
          0.9773246951,
          0.9773246951,
          1.0
        ],
        "baseColorTexture": {
          "index": 1
        },
        "metallicRoughnessTexture": {
          "index": 2
        }
      }
    }
  ],
  "meshes": [
    {
      "name": "polySurface223_planes_0",
      "primitives": [
        {
          "attributes": {
            "NORMAL": 1,
            "POSITION": 0,
            "TEXCOORD_0": 2,
            "TEXCOORD_1": 3
          },
          "indices": 4,
          "material": 0,
          "mode": 4
        }
      ]
    },
    {
      "name": "polySurface267_lambert3_0",
      "primitives": [
        {
          "attributes": {
            "NORMAL": 6,
            "POSITION": 5,
            "TANGENT": 7,
            "TEXCOORD_0": 8
          },
          "indices": 9,
          "material": 1,
          "mode": 4
        }
      ]
    }
  ],
  "nodes": [
    {
      "children": [
        1
      ],
      "matrix": [
        1.0,
        0.0,
        0.0,
        0.0,
        0.0,
        2.220446049250313e-16,
        -1.0,
        0.0,
        0.0,
        1.0,
        2.220446049250313e-16,
        0.0,
        0.0,
        0.0,
        0.0,
        1.0
      ],
      "name": "Sketchfab_model"
    },
    {
      "children": [
        2
      ],
      "matrix": [
        1.0,
        0.0,
        0.0,
        0.0,
        0.0,
        0.0,
        1.0,
        0.0,
        0.0,
        -1.0,
        0.0,
        0.0,
        0.0,
        0.0,
        0.0,
        1.0
      ],
      "name": "8a235ba88739484f957c731f74d4e0e5.fbx"
    },
    {
      "children": [
        3,
        5
      ],
      "name": "RootNode"
    },
    {
      "children": [
        4
      ],
      "name": "polySurface223"
    },
    {
      "mesh": 0,
      "name": "polySurface223_planes_0"
    },
    {
      "children": [
        6
      ],
      "name": "polySurface267"
    },
    {
      "mesh": 1,
      "name": "polySurface267_lambert3_0"
    }
  ],
  "samplers": [
    {
      "magFilter": 9729,
      "minFilter": 9987,
      "wrapS": 10497,
      "wrapT": 10497
    }
  ],
  "scene": 0,
  "scenes": [
    {
      "name": "Sketchfab_Scene",
      "nodes": [
        0
      ]
    }
  ],
  "textures": [
    {
      "sampler": 0,
      "source": 0
    },
    {
      "sampler": 0,
      "source": 1
    },
    {
      "sampler": 0,
      "source": 2
    },
    {
      "sampler": 0,
      "source": 3
    }
  ]
}
